<svg width="75" height="93" viewBox="0 0 75 93" fill="none" xmlns="http://www.w3.org/2000/svg">
<path d="M71.8526 80.6H3.11498C2.58238 80.5984 2.05903 80.4617 1.59463 80.203C1.13023 79.9442 0.740208 79.572 0.461595 79.1216C0.182981 78.6712 0.0250289 78.1577 0.00273803 77.6297C-0.0195529 77.1017 0.0945582 76.5769 0.334234 76.1049C4.18937 68.3955 6.20963 59.911 6.23942 51.305V40.3C6.23942 32.0782 9.53123 24.1933 15.3907 18.3796C21.2501 12.566 29.1973 9.29996 37.4838 9.29996C45.7703 9.29996 53.7174 12.566 59.5769 18.3796C65.4364 24.1933 68.7282 32.0782 68.7282 40.3V51.243C68.7579 59.849 70.7782 68.3335 74.6333 76.043C74.8878 76.517 75.0137 77.0485 74.9988 77.5854C74.9839 78.1223 74.8287 78.6461 74.5483 79.1056C74.2679 79.565 73.8721 79.9443 73.3995 80.2063C72.927 80.4682 72.3939 80.6039 71.8526 80.6ZM7.95786 74.4H67.0097C64.0302 67.0367 62.4926 59.1775 62.4793 51.243V40.3C62.4793 33.7226 59.8458 27.4146 55.1583 22.7637C50.4707 18.1128 44.113 15.5 37.4838 15.5C30.8546 15.5 24.4969 18.1128 19.8093 22.7637C15.1217 27.4146 12.4883 33.7226 12.4883 40.3V51.243C12.4749 59.1775 10.9374 67.0367 7.95786 74.4Z" fill="#9CB01A"/>
<path d="M37.4841 93C33.3408 93 29.3673 91.367 26.4375 88.4602C23.5078 85.5534 21.8619 81.6109 21.8619 77.5C21.8619 76.6779 22.1911 75.8894 22.777 75.308C23.363 74.7266 24.1577 74.4 24.9863 74.4C25.815 74.4 26.6097 74.7266 27.1957 75.308C27.7816 75.8894 28.1108 76.6779 28.1108 77.5C28.113 79.9657 29.1019 82.3296 30.8603 84.072C32.6483 85.7553 35.0192 86.6938 37.4841 86.6938C39.949 86.6938 42.3199 85.7553 44.1079 84.072C44.3992 83.783 44.7451 83.5537 45.1257 83.3973C45.5063 83.2408 45.9143 83.1603 46.3263 83.1603C46.7382 83.1603 47.1462 83.2408 47.5268 83.3973C47.9074 83.5537 48.2533 83.783 48.5446 84.072C48.8359 84.3611 49.067 84.7042 49.2247 85.0819C49.3823 85.4595 49.4635 85.8643 49.4635 86.273C49.4635 86.6818 49.3823 87.0865 49.2247 87.4642C49.067 87.8418 48.8359 88.185 48.5446 88.474C47.0911 89.9125 45.3662 91.0526 43.4683 91.8292C41.5705 92.6058 39.537 93.0037 37.4841 93Z" fill="#9CB01A"/>
<path d="M37.4841 15.5C36.6554 15.5 35.8607 15.1734 35.2747 14.592C34.6888 14.0107 34.3596 13.2222 34.3596 12.4V3.1C34.3596 2.27783 34.6888 1.48933 35.2747 0.907969C35.8607 0.326606 36.6554 0 37.4841 0C38.3127 0 39.1074 0.326606 39.6934 0.907969C40.2793 1.48933 40.6085 2.27783 40.6085 3.1V12.4C40.6085 13.2222 40.2793 14.0107 39.6934 14.592C39.1074 15.1734 38.3127 15.5 37.4841 15.5Z" fill="#9CB01A"/>
<path d="M68.7284 12.4C67.4925 12.4 66.2844 12.0364 65.2567 11.3551C64.2291 10.6738 63.4282 9.70554 62.9552 8.57264C62.4823 7.43974 62.3585 6.19312 62.5996 4.99044C62.8407 3.78776 63.4359 2.68303 64.3098 1.81594C65.1837 0.948855 66.2972 0.358362 67.5093 0.119134C68.7215 -0.120094 69.9779 0.00268634 71.1198 0.47195C72.2616 0.941213 73.2375 1.73588 73.9242 2.75547C74.6108 3.77505 74.9773 4.97376 74.9773 6.2C74.9773 7.84435 74.3189 9.42134 73.1471 10.5841C71.9752 11.7468 70.3857 12.4 68.7284 12.4Z" fill="#9CB01A"/>
</svg>
