<svg width="75" height="93" viewBox="0 0 75 93" fill="none" xmlns="http://www.w3.org/2000/svg">
<path d="M37.5 49.6C32.5555 49.6 27.722 48.1455 23.6108 45.4205C19.4995 42.6954 16.2952 38.8222 14.403 34.2906C12.5108 29.759 12.0157 24.7725 12.9804 19.9618C13.945 15.1511 16.326 10.7321 19.8223 7.26377C23.3187 3.79542 27.7732 1.43345 32.6228 0.476536C37.4723 -0.480378 42.4989 0.0107454 47.0671 1.8878C51.6353 3.76485 55.5397 6.94353 58.2868 11.0219C61.0338 15.1002 62.5 19.895 62.5 24.8C62.5 31.3774 59.8661 37.6854 55.1777 42.3363C50.4893 46.9872 44.1304 49.6 37.5 49.6ZM37.5 6.20001C33.7916 6.20001 30.1665 7.29089 27.0831 9.33468C23.9996 11.3785 21.5964 14.2834 20.1773 17.6821C18.7581 21.0808 18.3868 24.8207 19.1103 28.4287C19.8338 32.0368 21.6195 35.351 24.2418 37.9522C26.864 40.5535 30.2049 42.325 33.8421 43.0426C37.4792 43.7603 41.2492 43.392 44.6753 41.9842C48.1014 40.5764 51.0298 38.1924 53.0901 35.1336C55.1503 32.0749 56.25 28.4788 56.25 24.8C56.25 19.867 54.2746 15.136 50.7583 11.6478C47.242 8.15965 42.4728 6.20001 37.5 6.20001Z" fill="#9CB01A"/>
<path d="M59.375 93H15.625C11.481 93 7.50671 91.367 4.57646 88.4601C1.6462 85.5533 0 81.6108 0 77.5V65.1C9.45863e-05 64.562 0.141323 64.0333 0.4098 63.5659C0.678277 63.0984 1.06476 62.7083 1.53125 62.434L17.1562 53.134C17.8612 52.8179 18.6593 52.7725 19.3961 53.0065C20.1329 53.2405 20.756 53.7373 21.1448 54.4008C21.5337 55.0642 21.6606 55.8472 21.5011 56.5981C21.3416 57.349 20.9069 58.0146 20.2812 58.466L6.25 66.867V77.5C6.25 79.9665 7.23772 82.332 8.99587 84.0761C10.754 85.8202 13.1386 86.8 15.625 86.8H59.375C61.8614 86.8 64.246 85.8202 66.0041 84.0761C67.7623 82.332 68.75 79.9665 68.75 77.5V66.867L54.6562 58.466C54.2578 58.2873 53.9016 58.0277 53.6106 57.704C53.3196 57.3802 53.1004 56.9994 52.9671 56.5863C52.8337 56.1732 52.7893 55.7369 52.8366 55.3057C52.8839 54.8745 53.0219 54.4579 53.2417 54.083C53.4614 53.708 53.7581 53.3829 54.1125 53.1288C54.4668 52.8747 54.871 52.6971 55.2989 52.6077C55.7267 52.5183 56.1687 52.5189 56.5964 52.6095C57.024 52.7002 57.4276 52.8789 57.7812 53.134L73.4062 62.434C73.8844 62.7005 74.2834 63.0872 74.5631 63.5552C74.8429 64.0232 74.9936 64.5559 75 65.1V77.5C75 81.6108 73.3538 85.5533 70.4235 88.4601C67.4933 91.367 63.519 93 59.375 93Z" fill="#9CB01A"/>
</svg>
