<svg width="75" height="93" viewBox="0 0 75 93" fill="none" xmlns="http://www.w3.org/2000/svg">
<path d="M72.3113 93H45.5334C45.1605 93.0017 44.7914 92.9133 44.4498 92.7404C44.1081 92.5674 43.8014 92.3138 43.5493 91.9957C43.2972 91.6776 43.1053 91.3021 42.9859 90.8931C42.8664 90.4842 42.822 90.0509 42.8556 89.621L48.2112 21.421C48.2715 20.6481 48.5801 19.9295 49.0758 19.4072C49.5716 18.8849 50.2186 18.5969 50.889 18.6H66.9557C67.6261 18.5969 68.2731 18.8849 68.7689 19.4072C69.2647 19.9295 69.5732 20.6481 69.6335 21.421L74.9891 89.621C75.0227 90.0509 74.9783 90.4842 74.8589 90.8931C74.7394 91.3021 74.5475 91.6776 74.2954 91.9957C74.0433 92.3138 73.7366 92.5674 73.395 92.7404C73.0533 92.9133 72.6842 93.0017 72.3113 93ZM48.4522 86.8H69.3925L64.519 24.8H53.3258L48.4522 86.8Z" fill="#9CB01A"/>
<path d="M45.5334 93H2.68866C2.31578 93.0017 1.94669 92.9133 1.60503 92.7404C1.26337 92.5674 0.956683 92.3138 0.704599 91.9957C0.452515 91.6776 0.260598 91.3021 0.141137 90.8931C0.0216764 90.4842 -0.0226936 90.0509 0.0108693 89.621L5.36646 21.421C5.42679 20.6481 5.73533 19.9295 6.23112 19.4072C6.72692 18.8849 7.37391 18.5969 8.04425 18.6H50.889C51.2619 18.5982 51.6309 18.6867 51.9726 18.8596C52.3143 19.0325 52.621 19.2862 52.873 19.6043C53.1251 19.9224 53.317 20.2979 53.4365 20.7068C53.556 21.1158 53.6003 21.5491 53.5668 21.979L48.2112 90.179C48.1509 90.9519 47.8423 91.6705 47.3465 92.1928C46.8507 92.7151 46.2037 93.0031 45.5334 93ZM5.60746 86.8H43.0966L47.9702 24.8H10.481L5.60746 86.8Z" fill="#9CB01A"/>
<path d="M61.6003 71.3H56.2448V89.9H61.6003V71.3Z" fill="#9CB01A"/>
<path d="M40.178 37.2C39.4678 37.2 38.7867 36.8734 38.2845 36.292C37.7823 35.7107 37.5002 34.9222 37.5002 34.1V15.5C37.5002 13.0335 36.6538 10.668 35.1473 8.92391C33.6407 7.17982 31.5974 6.2 29.4668 6.2C27.3362 6.2 25.2929 7.17982 23.7863 8.92391C22.2798 10.668 21.4334 13.0335 21.4334 15.5V34.1C21.4334 34.9222 21.1513 35.7107 20.6491 36.292C20.1469 36.8734 19.4658 37.2 18.7556 37.2C18.0454 37.2 17.3643 36.8734 16.8621 36.292C16.3599 35.7107 16.0778 34.9222 16.0778 34.1V15.5C16.0778 11.3891 17.4884 7.44666 19.9994 4.53984C22.5103 1.63303 25.9158 0 29.4668 0C33.0178 0 36.4233 1.63303 38.9342 4.53984C41.4451 7.44666 42.8558 11.3891 42.8558 15.5V34.1C42.8558 34.9222 42.5736 35.7107 42.0715 36.292C41.5693 36.8734 40.8882 37.2 40.178 37.2Z" fill="#9CB01A"/>
<path d="M56.2447 24.8C55.5345 24.8 54.8534 24.4734 54.3512 23.892C53.849 23.3107 53.5669 22.5222 53.5669 21.7V15.5C53.5669 13.0335 52.7206 10.668 51.214 8.9239C49.7074 7.17982 47.6641 6.2 45.5335 6.2C44.8233 6.2 44.1422 5.87339 43.64 5.29203C43.1379 4.71067 42.8557 3.92217 42.8557 3.1C42.8557 2.27783 43.1379 1.48933 43.64 0.907969C44.1422 0.326606 44.8233 0 45.5335 0C47.2918 0 49.0329 0.400919 50.6573 1.17987C52.2817 1.95881 53.7577 3.10054 55.001 4.53984C56.2443 5.97915 57.2305 7.68786 57.9033 9.5684C58.5762 11.4489 58.9225 13.4645 58.9225 15.5V21.7C58.9225 22.5222 58.6404 23.3107 58.1382 23.892C57.636 24.4734 56.9549 24.8 56.2447 24.8Z" fill="#9CB01A"/>
</svg>
