<svg width="75" height="93" viewBox="0 0 75 93" fill="none" xmlns="http://www.w3.org/2000/svg">
<path d="M70.1102 25.3781H63.0659L61.048 6.62949C60.584 2.27518 58.0231 -0.632697 55.386 0.118046L4.03719 14.9677C1.38475 15.7335 -0.394738 19.9026 0.0753155 24.2569L5.55113 75.1673C5.777 77.2744 6.48819 79.1163 7.55649 80.3475C8.38977 81.3034 9.35734 81.8039 10.3524 81.8039C10.6393 81.8039 10.9262 81.7639 11.2131 81.6788L13.0842 81.137V84.9871C13.0842 89.4064 15.2757 93 17.9709 93H70.1102C72.8054 93 75 89.4064 75 84.9871V33.391C75 28.9716 72.8054 25.3781 70.1102 25.3781ZM56.4329 7.96081L57.3289 16.2891L25.887 25.3781H17.9709C16.311 25.3781 14.8469 26.7472 13.9633 28.8271L5.58566 31.2482L5.57555 31.1538L4.85216 22.5352L56.4329 7.96081ZM10.1662 73.836L7.01375 44.5258L13.0842 42.7703V73.197L10.1662 73.836ZM70.3117 84.9871C70.3117 85.1672 70.2201 85.3124 70.1102 85.3124L17.7725 84.9871V41.7342L17.9709 33.0657L70.3117 33.391V84.9871Z" fill="#9CB01A"/>
<path d="M25.101 66.3934H28.9621C31.2849 66.3934 33.1743 63.2954 33.1743 59.4866V53.1553C33.1743 49.3515 31.2849 46.2535 28.9621 46.2535H25.101C22.7812 46.2535 20.8918 49.3515 20.8918 53.1553V59.4866C20.8918 63.2954 22.7812 66.3934 25.101 66.3934ZM24.0174 53.1553C24.0174 52.1743 24.5027 51.3786 25.101 51.3786H28.9621C29.5604 51.3786 30.0487 52.1743 30.0487 53.1553V59.4866C30.0487 60.4676 29.5604 61.2683 28.9621 61.2683H25.101C24.5027 61.2683 24.0174 60.4676 24.0174 59.4866V53.1553Z" fill="#9CB01A"/>
<path d="M55.5872 69.5561C54.9768 70.5571 54.9768 72.1787 55.5872 73.1797C55.8925 73.6802 56.2923 73.9305 56.6922 73.9305C57.092 73.9305 57.4919 73.6802 57.7971 73.1797C62.5037 65.4671 62.5037 52.9097 57.7971 45.197C57.1866 44.196 56.1977 44.196 55.5872 45.197C54.9768 46.198 54.9768 47.8196 55.5872 48.8206C59.073 54.5363 59.073 63.8405 55.5872 69.5561Z" fill="#9CB01A"/>
<path d="M51.8726 66.5132C51.2622 67.5141 51.2622 69.1357 51.8726 70.1367C52.1779 70.6372 52.5777 70.8875 52.9776 70.8875C53.3774 70.8875 53.7773 70.6372 54.0825 70.1367C57.7636 64.1008 57.7636 54.276 54.0825 48.2401C53.472 47.2391 52.4831 47.2391 51.8726 48.2401C51.2622 49.2411 51.2622 50.8627 51.8726 51.8636C54.3358 55.9026 54.3358 62.4742 51.8726 66.5132Z" fill="#9CB01A"/>
<path d="M48.158 67.0941C48.4633 67.5946 48.8631 67.8449 49.263 67.8449C49.6628 67.8449 50.0627 67.5946 50.3679 67.0941C53.0234 62.7348 53.0234 55.6428 50.3679 51.2885C49.7574 50.2875 48.7685 50.2875 48.158 51.2885C47.5476 52.2895 47.5476 53.9111 48.158 54.9121C49.5957 57.2694 49.5957 61.1082 48.158 63.4705C47.5476 64.4715 47.5476 66.0981 48.158 67.0941Z" fill="#9CB01A"/>
<path d="M62.6899 59.1909C62.6899 64.2509 61.4873 69.0156 59.2988 72.6042C58.6883 73.6051 58.6883 75.2267 59.2988 76.2277C59.604 76.7282 60.0039 76.9785 60.4037 76.9785C60.8036 76.9785 61.2034 76.7282 61.5086 76.2277C64.2862 71.6732 65.8154 65.6222 65.8154 59.1909C65.8154 52.7545 64.2862 46.7085 61.5086 42.154C60.8982 41.153 59.9092 41.153 59.2988 42.154C58.6883 43.155 58.6883 44.7766 59.2988 45.7776C61.4873 49.3611 62.6899 54.1259 62.6899 59.1909Z" fill="#9CB01A"/>
<path d="M22.4546 80.5173H29.362C30.2258 80.5173 30.9247 79.3712 30.9247 77.9547C30.9247 76.5383 30.2258 75.3922 29.362 75.3922H22.4546C21.5908 75.3922 20.8918 76.5383 20.8918 77.9547C20.8918 79.3712 21.5908 80.5173 22.4546 80.5173Z" fill="#9CB01A"/>
<path d="M34.328 80.5173H43.5795C44.4433 80.5173 45.1423 79.3712 45.1423 77.9547C45.1423 76.5383 44.4433 75.3922 43.5795 75.3922H34.328C33.4642 75.3922 32.7653 76.5383 32.7653 77.9547C32.7653 79.3712 33.4642 80.5173 34.328 80.5173Z" fill="#9CB01A"/>
</svg>
