<svg width="106" height="104" viewBox="0 0 106 104" fill="none" xmlns="http://www.w3.org/2000/svg">
<path d="M44.9726 4.65782C48.9446 -1.1379 57.4979 -1.13789 61.47 4.65783L73.1112 21.6438C74.4115 23.5411 76.3261 24.9321 78.5324 25.5825L98.2843 31.405C105.024 33.3917 107.667 41.5263 103.382 47.095L90.825 63.4154C89.4224 65.2383 88.6911 67.4891 88.7543 69.7884L89.3205 90.3728C89.5136 97.3963 82.5939 102.424 75.9738 100.07L56.5718 93.1704C54.4046 92.3997 52.038 92.3997 49.8708 93.1704L30.4688 100.07C23.8487 102.424 16.9289 97.3963 17.1221 90.3728L17.6882 69.7884C17.7515 67.4891 17.0202 65.2383 15.6175 63.4154L3.06027 47.095C-1.22436 41.5263 1.41876 33.3917 8.15826 31.405L27.9102 25.5825C30.1164 24.9321 32.0311 23.5411 33.3314 21.6438L44.9726 4.65782Z" fill="#FF9901"/>
<path d="M64.4791 9.25625C73.9858 4.70643 85.0968 11.1214 85.9099 21.6293L86.7985 33.1136C87.0647 36.5535 88.5086 39.7965 90.8868 42.296L98.8267 50.6409C106.092 58.2763 103.424 70.8259 93.6817 74.8463L83.0341 79.2402C79.8448 80.5564 77.2067 82.9317 75.5644 85.966L70.0816 96.0959C65.0648 105.365 52.3052 106.706 45.471 98.6826L38.0018 89.914C35.7645 87.2875 32.6902 85.5125 29.297 84.8882L17.9685 82.8041C7.60313 80.8971 2.38472 69.1763 7.90333 60.1973L13.9347 50.384C15.7413 47.4447 16.4794 43.9723 16.0245 40.5523L14.506 29.1342C13.1166 18.6868 22.6511 10.1019 32.896 12.5758L44.0928 15.2795C47.4466 16.0893 50.977 15.7183 54.0891 14.2288L64.4791 9.25625Z" fill="#FF9901"/>
</svg>
